<?xml version="1.0" encoding="UTF-8"?>
<svg id="Capa_2" xmlns="http://www.w3.org/2000/svg" viewBox="0 0 200 50.43">
  <defs>
    <style>
      .cls-1 {
        fill: #ff5300;
      }

      .cls-2 {
        fill: #f5f5f5;
      }
    </style>
  </defs>
  <g id="Artwork">
    <g>
      <g>
        <path class="cls-2" d="M29.81,9.63l-7.49,25.16h-3.62l8.13-26.09h6.04l8.05,26.09h-3.62l-7.49-25.16Z"/>
        <path class="cls-2" d="M141.37.93l-7.49,25.16h-3.62L138.39,0h6.04l8.05,26.09h-3.62l-7.49-25.16Z"/>
        <path class="cls-2" d="M45.76,8.7h3.35v22.92h11.74v3.17h-15.1V8.7Z"/>
        <path class="cls-2" d="M66.67,11.79h-7.68v-3.09h18.71v3.09h-7.68v23h-3.35V11.79Z"/>
        <path class="cls-2" d="M82.36,25.58V8.7h3.35v16.81c0,3.88,1.71,6.52,6.19,6.52s6.26-2.65,6.26-6.52V8.7h3.35v16.89c0,6-3.39,9.54-9.62,9.54s-9.54-3.54-9.54-9.54Z"/>
        <path class="cls-2" d="M108.6,8.7h9.95c4.85,0,7.9,2.57,7.9,7.01,0,4.92-3.06,7.19-7.9,7.19h-5.63l14.91,11.89h-5.33l-10.62-8.68v8.68h-3.28V8.7ZM118.37,19.84c2.8,0,4.7-.97,4.7-4.1s-1.9-4.06-4.7-4.06h-6.49v8.16h6.49Z"/>
        <g>
          <path class="cls-1" d="M7.12,19.1v-10.4h2.98v7.72h7.12v2.68H7.12Z"/>
          <path class="cls-2" d="M10.1,16.41v10.4h-2.98v-7.72H0v-2.68h10.1Z"/>
        </g>
      </g>
      <g>
        <path class="cls-2" d="M141.19,38.84h.74c.04.7.46,1.14,1.38,1.14.85,0,1.33-.33,1.33-.99,0-.56-.32-.81-.95-.94l-.85-.18c-.92-.2-1.45-.68-1.45-1.57,0-.94.72-1.59,1.92-1.59s1.97.7,1.98,1.72h-.74c-.03-.63-.45-1.04-1.26-1.04-.69,0-1.16.3-1.16.91,0,.47.29.72.9.86l.79.18c.99.23,1.57.7,1.57,1.65,0,1.04-.83,1.67-2.09,1.67-1.41,0-2.08-.72-2.11-1.82Z"/>
        <path class="cls-2" d="M147.18,38.18v-.99c0-1.58.83-2.48,2.29-2.48s2.29.9,2.29,2.48v.99c0,1.58-.83,2.48-2.29,2.48s-2.29-.9-2.29-2.48ZM149.47,39.95c1.12,0,1.54-.69,1.54-1.77v-.99c0-1.09-.42-1.77-1.54-1.77s-1.54.69-1.54,1.77v.99c0,1.09.42,1.77,1.54,1.77Z"/>
        <path class="cls-2" d="M153.91,34.78h.75v5.1h2.61v.7h-3.36v-5.8Z"/>
        <path class="cls-2" d="M159.05,38.54v-3.75h.75v3.74c0,.86.38,1.45,1.38,1.45s1.39-.59,1.39-1.45v-3.74h.75v3.75c0,1.33-.75,2.12-2.14,2.12s-2.12-.79-2.12-2.12Z"/>
        <path class="cls-2" d="M165.38,38.18v-.99c0-1.58.83-2.48,2.29-2.48,1.38,0,2.16.82,2.25,2.09h-.75c-.09-.8-.48-1.38-1.5-1.38-1.12,0-1.54.69-1.54,1.77v.99c0,1.09.42,1.77,1.54,1.77.99,0,1.41-.55,1.48-1.32h.75c-.11,1.23-.87,2.02-2.24,2.02-1.46,0-2.29-.9-2.29-2.48Z"/>
        <path class="cls-2" d="M171.83,39.9h1.21v-4.43h-1.21v-.69h3.17v.69h-1.21v4.43h1.21v.69h-3.17v-.69Z"/>
        <path class="cls-2" d="M176.9,38.18v-.99c0-1.58.83-2.48,2.29-2.48s2.29.9,2.29,2.48v.99c0,1.58-.83,2.48-2.29,2.48s-2.29-.9-2.29-2.48ZM179.19,39.95c1.12,0,1.54-.69,1.54-1.77v-.99c0-1.09-.42-1.77-1.54-1.77s-1.54.69-1.54,1.77v.99c0,1.09.42,1.77,1.54,1.77Z"/>
        <path class="cls-2" d="M183.63,34.78h1.4l2.25,5.64v-5.64h.73v5.8h-1.45l-2.2-5.59v5.59h-.73v-5.8Z"/>
        <path class="cls-2" d="M190.49,34.78h3.56v.68h-2.82v1.79h2.56v.68h-2.56v1.97h2.82v.68h-3.56v-5.8Z"/>
        <path class="cls-2" d="M195.8,38.84h.74c.04.7.46,1.14,1.38,1.14.85,0,1.33-.33,1.33-.99,0-.56-.32-.81-.95-.94l-.85-.18c-.92-.2-1.45-.68-1.45-1.57,0-.94.72-1.59,1.92-1.59s1.97.7,1.98,1.72h-.74c-.03-.63-.45-1.04-1.26-1.04-.69,0-1.16.3-1.16.91,0,.47.29.72.9.86l.79.18c.99.23,1.57.7,1.57,1.65,0,1.04-.83,1.67-2.09,1.67-1.41,0-2.08-.72-2.11-1.82Z"/>
        <path class="cls-2" d="M141.03,44.55h.8l1.61,5.59,1.61-5.59h.8l-1.71,5.8h-1.39l-1.71-5.8Z"/>
        <path class="cls-2" d="M147.74,44.55h3.56v.68h-2.82v1.79h2.56v.68h-2.56v1.97h2.82v.68h-3.56v-5.8Z"/>
        <path class="cls-2" d="M153.46,44.55h2.21c1.08,0,1.76.57,1.76,1.56,0,1.09-.68,1.6-1.76,1.6h-1.25l3.32,2.64h-1.19l-2.36-1.93v1.93h-.73v-5.8ZM155.63,47.03c.62,0,1.04-.22,1.04-.91s-.42-.9-1.04-.9h-1.44v1.82h1.44Z"/>
        <path class="cls-2" d="M160.85,45.24h-1.71v-.69h4.16v.69h-1.71v5.11h-.75v-5.11Z"/>
        <path class="cls-2" d="M165.01,49.66h1.21v-4.43h-1.21v-.69h3.17v.69h-1.21v4.43h1.21v.69h-3.17v-.69Z"/>
        <path class="cls-2" d="M170.08,47.95v-.99c0-1.58.83-2.48,2.29-2.48s2.15.82,2.25,2.09h-.75c-.09-.8-.48-1.38-1.5-1.38-1.12,0-1.54.69-1.54,1.77v.99c0,1.09.42,1.77,1.54,1.77.99,0,1.41-.55,1.48-1.32h.75c-.11,1.23-.87,2.02-2.24,2.02-1.46,0-2.29-.9-2.29-2.48Z"/>
        <path class="cls-2" d="M179.72,48.85h-2.44l-.45,1.5h-.8l1.81-5.8h1.34l1.79,5.8h-.8l-.45-1.5ZM179.52,48.19l-1.02-3.43-1.02,3.43h2.04Z"/>
        <path class="cls-2" d="M182.88,44.55h.75v5.1h2.61v.7h-3.36v-5.8Z"/>
        <path class="cls-2" d="M188.1,44.55h3.56v.68h-2.82v1.79h2.56v.68h-2.56v1.97h2.82v.68h-3.56v-5.8Z"/>
        <path class="cls-2" d="M193.4,48.61h.74c.04.7.46,1.14,1.38,1.14.85,0,1.33-.33,1.33-.99,0-.56-.32-.81-.95-.94l-.85-.18c-.92-.2-1.45-.68-1.45-1.57,0-.94.72-1.59,1.92-1.59s1.97.7,1.98,1.72h-.74c-.03-.63-.45-1.04-1.26-1.04-.69,0-1.16.3-1.16.91,0,.47.29.72.9.86l.79.18c.99.23,1.57.7,1.57,1.65,0,1.04-.83,1.67-2.09,1.67-1.41,0-2.08-.72-2.11-1.82Z"/>
      </g>
    </g>
  </g>
</svg>