<?xml version="1.0" encoding="UTF-8"?>
<svg id="Capa_2" xmlns="http://www.w3.org/2000/svg" viewBox="0 0 400 100.85">
  <defs>
    <style>
      .cls-1 {
        fill: #ff5300;
      }

      .cls-2 {
        fill: #f5f5f5;
      }
    </style>
  </defs>
  <g id="Artwork">
    <g>
      <g>
        <path class="cls-2" d="M59.61,19.26l-14.98,50.32h-7.23l16.25-52.18h12.08l16.1,52.18h-7.23l-14.98-50.32Z"/>
        <path class="cls-2" d="M282.74,1.86l-14.98,50.32h-7.23L276.77,0h12.08l16.1,52.18h-7.23l-14.98-50.32Z"/>
        <path class="cls-2" d="M91.52,17.4h6.71v45.85h23.48v6.34h-30.19V17.4Z"/>
        <path class="cls-2" d="M133.34,23.58h-15.36v-6.19h37.42v6.19h-15.36v46h-6.71V23.58Z"/>
        <path class="cls-2" d="M164.73,51.17V17.4h6.71v33.62c0,7.75,3.43,13.05,12.38,13.05s12.52-5.29,12.52-13.05V17.4h6.71v33.77c0,12-6.78,19.08-19.23,19.08s-19.08-7.08-19.08-19.08Z"/>
        <path class="cls-2" d="M217.21,17.4h19.9c9.69,0,15.8,5.14,15.8,14.02,0,9.84-6.11,14.39-15.8,14.39h-11.26l29.82,23.78h-10.66l-21.25-17.37v17.37h-6.56V17.4ZM236.74,39.69c5.59,0,9.39-1.94,9.39-8.2s-3.8-8.13-9.39-8.13h-12.97v16.33h12.97Z"/>
        <g>
          <path class="cls-1" d="M14.24,38.19v-20.8h5.96v15.43h14.24v5.37H14.24Z"/>
          <path class="cls-2" d="M20.2,32.83v20.8h-5.96v-15.43H0v-5.37h20.2Z"/>
        </g>
      </g>
      <g>
        <path class="cls-2" d="M282.39,77.69h1.48c.08,1.41.93,2.29,2.75,2.29,1.69,0,2.67-.66,2.67-1.99,0-1.13-.65-1.62-1.91-1.89l-1.69-.36c-1.84-.4-2.9-1.36-2.9-3.13,0-1.87,1.44-3.18,3.85-3.18s3.95,1.39,3.96,3.45h-1.48c-.07-1.26-.9-2.09-2.52-2.09-1.38,0-2.32.6-2.32,1.82,0,.95.58,1.44,1.81,1.72l1.57.36c1.99.46,3.13,1.39,3.13,3.3,0,2.07-1.66,3.33-4.18,3.33-2.82,0-4.16-1.44-4.23-3.63Z"/>
        <path class="cls-2" d="M294.36,76.36v-1.99c0-3.17,1.66-4.96,4.57-4.96s4.58,1.79,4.58,4.96v1.99c0,3.17-1.66,4.96-4.58,4.96s-4.57-1.79-4.57-4.96ZM298.93,79.91c2.24,0,3.08-1.38,3.08-3.55v-1.99c0-2.17-.85-3.55-3.08-3.55s-3.08,1.38-3.08,3.55v1.99c0,2.17.85,3.55,3.08,3.55Z"/>
        <path class="cls-2" d="M307.82,69.56h1.49v10.2h5.22v1.41h-6.71v-11.6Z"/>
        <path class="cls-2" d="M318.09,77.07v-7.51h1.49v7.48c0,1.72.76,2.9,2.75,2.9s2.78-1.18,2.78-2.9v-7.48h1.49v7.51c0,2.67-1.51,4.24-4.28,4.24s-4.24-1.57-4.24-4.24Z"/>
        <path class="cls-2" d="M330.76,76.36v-1.99c0-3.17,1.66-4.96,4.58-4.96,2.77,0,4.31,1.64,4.51,4.18h-1.51c-.18-1.61-.96-2.77-3-2.77-2.24,0-3.08,1.38-3.08,3.55v1.99c0,2.17.85,3.55,3.08,3.55,1.99,0,2.82-1.09,2.97-2.64h1.51c-.22,2.47-1.74,4.04-4.48,4.04-2.92,0-4.58-1.79-4.58-4.96Z"/>
        <path class="cls-2" d="M343.66,79.79h2.42v-8.85h-2.42v-1.38h6.33v1.38h-2.42v8.85h2.42v1.38h-6.33v-1.38Z"/>
        <path class="cls-2" d="M353.8,76.36v-1.99c0-3.17,1.66-4.96,4.57-4.96s4.57,1.79,4.57,4.96v1.99c0,3.17-1.66,4.96-4.57,4.96s-4.57-1.79-4.57-4.96ZM358.38,79.91c2.24,0,3.08-1.38,3.08-3.55v-1.99c0-2.17-.85-3.55-3.08-3.55s-3.08,1.38-3.08,3.55v1.99c0,2.17.85,3.55,3.08,3.55Z"/>
        <path class="cls-2" d="M367.26,69.56h2.8l4.49,11.27v-11.27h1.46v11.6h-2.9l-4.39-11.19v11.19h-1.46v-11.6Z"/>
        <path class="cls-2" d="M380.99,69.56h7.13v1.36h-5.64v3.58h5.12v1.36h-5.12v3.95h5.64v1.36h-7.13v-11.6Z"/>
        <path class="cls-2" d="M391.6,77.69h1.48c.08,1.41.93,2.29,2.75,2.29,1.69,0,2.67-.66,2.67-1.99,0-1.13-.65-1.62-1.91-1.89l-1.69-.36c-1.84-.4-2.9-1.36-2.9-3.13,0-1.87,1.44-3.18,3.85-3.18s3.95,1.39,3.96,3.45h-1.48c-.07-1.26-.89-2.09-2.52-2.09-1.38,0-2.32.6-2.32,1.82,0,.95.58,1.44,1.81,1.72l1.57.36c1.99.46,3.13,1.39,3.13,3.3,0,2.07-1.66,3.33-4.18,3.33-2.82,0-4.16-1.44-4.23-3.63Z"/>
        <path class="cls-2" d="M282.06,89.1h1.59l3.22,11.19,3.22-11.19h1.59l-3.41,11.6h-2.78l-3.41-11.6Z"/>
        <path class="cls-2" d="M295.48,89.1h7.13v1.36h-5.64v3.58h5.12v1.36h-5.12v3.95h5.64v1.36h-7.13v-11.6Z"/>
        <path class="cls-2" d="M306.92,89.1h4.43c2.16,0,3.51,1.14,3.51,3.12,0,2.19-1.36,3.2-3.51,3.2h-2.5l6.63,5.29h-2.37l-4.72-3.86v3.86h-1.46v-11.6ZM311.26,94.06c1.24,0,2.09-.43,2.09-1.82s-.85-1.81-2.09-1.81h-2.88v3.63h2.88Z"/>
        <path class="cls-2" d="M321.71,90.48h-3.41v-1.38h8.32v1.38h-3.41v10.23h-1.49v-10.23Z"/>
        <path class="cls-2" d="M330.01,99.33h2.42v-8.85h-2.42v-1.38h6.33v1.38h-2.42v8.85h2.42v1.38h-6.33v-1.38Z"/>
        <path class="cls-2" d="M340.16,95.9v-1.99c0-3.17,1.66-4.96,4.58-4.96s4.31,1.64,4.51,4.18h-1.51c-.18-1.61-.96-2.77-3-2.77-2.24,0-3.08,1.38-3.08,3.55v1.99c0,2.17.85,3.55,3.08,3.55,1.99,0,2.82-1.09,2.97-2.64h1.51c-.22,2.47-1.74,4.04-4.48,4.04-2.92,0-4.58-1.79-4.58-4.96Z"/>
        <path class="cls-2" d="M359.44,97.7h-4.87l-.89,3h-1.61l3.61-11.6h2.68l3.58,11.6h-1.61l-.89-3ZM359.04,96.38l-2.04-6.86-2.04,6.86h4.08Z"/>
        <path class="cls-2" d="M365.75,89.1h1.49v10.2h5.22v1.41h-6.71v-11.6Z"/>
        <path class="cls-2" d="M376.2,89.1h7.13v1.36h-5.64v3.58h5.12v1.36h-5.12v3.95h5.64v1.36h-7.13v-11.6Z"/>
        <path class="cls-2" d="M386.81,97.22h1.48c.08,1.41.93,2.29,2.75,2.29,1.69,0,2.67-.66,2.67-1.99,0-1.13-.65-1.62-1.91-1.89l-1.69-.36c-1.84-.4-2.9-1.36-2.9-3.13,0-1.87,1.44-3.18,3.85-3.18s3.95,1.39,3.96,3.45h-1.48c-.07-1.26-.89-2.09-2.52-2.09-1.38,0-2.32.6-2.32,1.82,0,.95.58,1.44,1.81,1.72l1.57.36c1.99.46,3.13,1.39,3.13,3.3,0,2.07-1.66,3.33-4.18,3.33-2.82,0-4.16-1.44-4.23-3.63Z"/>
      </g>
    </g>
  </g>
</svg>